<?xml version="1.0" standalone="no"?>
<!DOCTYPE svg PUBLIC "-//W3C//DTD SVG 20010904//EN"
 "http://www.w3.org/TR/2001/REC-SVG-20010904/DTD/svg10.dtd">
<svg version="1.0" xmlns="http://www.w3.org/2000/svg"
 width="512.000000pt" height="512.000000pt" viewBox="0 0 512.000000 512.000000"
 preserveAspectRatio="xMidYMid meet">

<g transform="translate(0.000000,512.000000) scale(0.100000,-0.100000)"
fill="#000000" stroke="none">
<path d="M782 3829 c-19 -6 -53 -30 -77 -53 -70 -70 -83 -155 -39 -245 67
-134 244 -158 342 -45 146 165 -11 404 -226 343z"/>
<path d="M1605 3825 c-86 -31 -128 -128 -107 -252 12 -74 38 -114 89 -139 36
-18 91 -19 1368 -22 962 -2 1345 1 1385 9 95 20 140 86 140 208 0 105 -41 174
-119 200 -25 8 -401 11 -1375 11 -1130 -1 -1347 -3 -1381 -15z"/>
<path d="M765 2753 c-165 -87 -166 -300 -1 -385 59 -30 151 -22 208 18 138 96
118 305 -34 369 -48 19 -134 19 -173 -2z"/>
<path d="M1600 2759 c-14 -6 -36 -20 -48 -32 -44 -41 -56 -76 -56 -167 0 -112
31 -171 107 -199 20 -8 448 -11 1385 -11 1301 0 1359 1 1398 19 25 12 50 33
65 57 21 34 24 51 24 134 0 83 -3 100 -24 134 -15 24 -40 45 -65 57 -39 18
-96 19 -1401 18 -879 0 -1369 -4 -1385 -10z"/>
<path d="M802 1700 c-57 -13 -108 -55 -136 -111 -44 -89 -31 -175 37 -243 70
-70 157 -84 246 -40 127 64 155 219 59 328 -29 34 -53 50 -91 61 -55 16 -66
17 -115 5z"/>
<path d="M1622 1698 c-97 -21 -146 -124 -124 -257 12 -72 33 -107 83 -136 33
-20 55 -20 1384 -23 987 -2 1361 0 1392 9 78 21 123 93 123 198 0 122 -44 190
-138 210 -68 14 -2655 14 -2720 -1z"/>
</g>
</svg>
